<?xml version="1.0" encoding="UTF-8" standalone="no"?>
<!-- Created with Inkscape (http://www.inkscape.org/) -->

<svg
   xmlns:dc="http://purl.org/dc/elements/1.1/"
   xmlns:cc="http://creativecommons.org/ns#"
   xmlns:rdf="http://www.w3.org/1999/02/22-rdf-syntax-ns#"
   xmlns:svg="http://www.w3.org/2000/svg"
   xmlns="http://www.w3.org/2000/svg"
   xmlns:sodipodi="http://sodipodi.sourceforge.net/DTD/sodipodi-0.dtd"
   xmlns:inkscape="http://www.inkscape.org/namespaces/inkscape"
   width="500"
   height="500"
   viewBox="0 0 132.29167 132.29167"
   version="1.1"
   id="svg8"
   sodipodi:docname="logo.svg"
   inkscape:version="0.92.4 5da689c313, 2019-01-14">
  <defs
     id="defs2" />
  <sodipodi:namedview
     id="base"
     pagecolor="#ffffff"
     bordercolor="#484848"
     borderopacity="1"
     inkscape:pageopacity="0.0"
     inkscape:pageshadow="2"
     inkscape:zoom="0.33411048"
     inkscape:cx="-390.79067"
     inkscape:cy="-155.67083"
     inkscape:document-units="px"
     inkscape:current-layer="layer1"
     showgrid="false"
     units="px"
     inkscape:showpageshadow="false"
     inkscape:pagecheckerboard="true"
     inkscape:window-width="1600"
     inkscape:window-height="900"
     inkscape:window-x="0"
     inkscape:window-y="0"
     inkscape:window-maximized="0"
     inkscape:snap-page="true" />
  <metadata
     id="metadata5">
    <rdf:RDF>
      <cc:Work
         rdf:about="">
        <dc:format>image/svg+xml</dc:format>
        <dc:type
           rdf:resource="http://purl.org/dc/dcmitype/StillImage" />
        <dc:title></dc:title>
        <cc:license
           rdf:resource="http://creativecommons.org/licenses/by-nc-sa/4.0/" />
        <dc:creator>
          <cc:Agent>
            <dc:title>Luis F. Uceta</dc:title>
          </cc:Agent>
        </dc:creator>
      </cc:Work>
      <cc:License
         rdf:about="http://creativecommons.org/licenses/by-nc-sa/4.0/">
        <cc:permits
           rdf:resource="http://creativecommons.org/ns#Reproduction" />
        <cc:permits
           rdf:resource="http://creativecommons.org/ns#Distribution" />
        <cc:requires
           rdf:resource="http://creativecommons.org/ns#Notice" />
        <cc:requires
           rdf:resource="http://creativecommons.org/ns#Attribution" />
        <cc:prohibits
           rdf:resource="http://creativecommons.org/ns#CommercialUse" />
        <cc:permits
           rdf:resource="http://creativecommons.org/ns#DerivativeWorks" />
        <cc:requires
           rdf:resource="http://creativecommons.org/ns#ShareAlike" />
      </cc:License>
    </rdf:RDF>
  </metadata>
  <g
     inkscape:label="Layer 1"
     inkscape:groupmode="layer"
     id="layer1"
     transform="translate(0,-164.70833)">
    <g
       transform="translate(-545.47217,115.32359)"
       id="g935"
       inkscape:export-filename="/home/luis/Documents/github-repos/winter-2020-codefest-submissions-phoebe/another-site/include/pears-images.png"
       inkscape:export-xdpi="96"
       inkscape:export-ydpi="96">
      <rect
         y="49.384743"
         x="545.47217"
         height="132.29167"
         width="132.29167"
         id="rect1321"
         style="opacity:0;vector-effect:none;fill:#ffffff;fill-opacity:1;stroke:none;stroke-width:0.1385795;stroke-linecap:butt;stroke-linejoin:miter;stroke-miterlimit:4;stroke-dasharray:none;stroke-dashoffset:0;stroke-opacity:1;paint-order:stroke fill markers" />
      <g
         transform="matrix(0.82921875,0,0,0.82921875,32.323482,-33.695)"
         id="g1344">
        <g
           id="g1306">
          <path
             id="path1249"
             d="m 687.53449,112.97938 c 0.5698,-0.59744 1.37743,-0.90682 2.20091,-0.84374 0.82285,0.0631 1.57414,0.4926 2.04665,1.16891 3.47989,4.97905 9.5167,16.79658 3.18034,32.74252 l -6.08478,-1.46952 c 0,0 -0.13518,-13.11412 -7.15533,-22.09976 -0.83967,-1.07475 -0.7666,-2.60426 0.17507,-3.59062 z"
             style="fill:#533f29;stroke-width:0.28702128"
             inkscape:connector-curvature="0" />
          <path
             id="path1253"
             d="m 703.82441,203.52052 c -2.97096,-9.59389 -2.49358,-19.93198 1.36901,-29.20298 v 0 c 4.84247,-11.62292 -0.65419,-24.97081 -12.2771,-29.81328 -11.62292,-4.84248 -24.97082,0.65418 -29.81328,12.2771 -3.8712,9.29165 -10.84625,16.87971 -19.76994,21.53627 -8.53632,4.45444 -15.62038,11.81084 -19.61299,21.39394 -9.0573,21.73934 1.22349,46.70486 22.96284,55.76215 21.73935,9.0573 46.70497,-1.22375 55.76216,-22.96284 3.99299,-9.58325 4.22756,-19.79305 1.3793,-28.99036 z"
             style="opacity:1;fill:#ffab00;fill-opacity:1;stroke-width:0.28702128"
             inkscape:connector-curvature="0" />
          <path
             id="path1255"
             d="m 698.65391,147.95496 c 2.83343,5.74468 2.63067,12.03237 1.56362,17.93926 -1.62371,8.98841 -9.32587,15.94209 -11.78173,24.73962 -2.14393,7.68009 0.65666,17.34632 0.33619,25.22979 -0.26098,6.41976 -3.16335,11.37217 -7.83328,15.42824 -10.35327,8.99233 -28.23427,13.06676 -41.10396,1.72276 -12.5712,-11.0809 -14.03501,-34.30584 -12.23217,-40.00676 0.13377,-0.423 0.3597,-0.93627 0.64764,-1.50845 3.97205,-5.63257 9.17952,-10.10149 15.08263,-13.18187 8.92369,-4.65655 15.89885,-12.24468 19.77004,-21.53633 4.84247,-11.62293 18.19057,-17.11955 29.81349,-12.27708 2.12661,0.88602 4.0469,2.058 5.73753,3.45082 z"
             style="opacity:1;vector-effect:none;fill:#ffc400;fill-opacity:1;stroke:none;stroke-width:0.05291667;stroke-linecap:butt;stroke-linejoin:miter;stroke-miterlimit:4;stroke-dasharray:none;stroke-dashoffset:0;stroke-opacity:1"
             inkscape:connector-curvature="0" />
          <g
             style="fill:#ff9100;fill-opacity:1"
             transform="matrix(1.4883725,0,0,1.4883725,561.26003,-103.95172)"
             id="g1267">
            <g
               style="fill:#ff9100;fill-opacity:1"
               id="g1263"
               transform="translate(0.66962814)">
              <circle
                 r="1.1904538"
                 cy="220.29013"
                 cx="72.096863"
                 id="circle1259"
                 style="opacity:1;vector-effect:none;fill:#ff9100;fill-opacity:1;stroke:none;stroke-width:0.26458335;stroke-linecap:butt;stroke-linejoin:miter;stroke-miterlimit:4;stroke-dasharray:none;stroke-dashoffset:0;stroke-opacity:1;paint-order:stroke fill markers" />
              <circle
                 style="opacity:1;vector-effect:none;fill:#ff9100;fill-opacity:1;stroke:none;stroke-width:0.26458335;stroke-linecap:butt;stroke-linejoin:miter;stroke-miterlimit:4;stroke-dasharray:none;stroke-dashoffset:0;stroke-opacity:1;paint-order:stroke fill markers"
                 id="circle1261"
                 cx="76.858681"
                 cy="220.29013"
                 r="1.1904538" />
            </g>
            <circle
               style="opacity:1;vector-effect:none;fill:#ff9100;fill-opacity:1;stroke:none;stroke-width:0.26458335;stroke-linecap:butt;stroke-linejoin:miter;stroke-miterlimit:4;stroke-dasharray:none;stroke-dashoffset:0;stroke-opacity:1;paint-order:stroke fill markers"
               id="circle1265"
               cx="75.1474"
               cy="224.30791"
               r="1.1904538" />
          </g>
        </g>
        <g
           id="g1319">
          <g
             transform="matrix(0.95528868,-0.2956747,-0.2956747,-0.95528868,900.84439,231.80719)"
             id="g1243">
            <path
               id="path1239"
               d="m -111.40239,145.64463 c -9.95786,-2.97339 -19.57731,-0.20294 -21.48549,6.18807 -1.90817,6.39075 4.61725,13.98218 14.57484,16.95556 7.53269,2.24896 19.659075,-1.3417 25.119275,-3.22421 0.67496,-0.23283 1.19618,-0.77629 1.40044,-1.46023 0.20426,-0.68395 0.0667,-1.42505 -0.37015,-1.98941 -3.53377,-4.56856 -11.706225,-14.22082 -19.238915,-16.46978 z"
               style="fill:#a8da64;stroke-width:0.26458335"
               inkscape:connector-curvature="0" />
            <path
               id="path1241"
               d="m -111.40239,145.64463 c -9.95786,-2.97339 -19.57731,-0.20294 -21.48549,6.18807 23.13411,3.31365 41.095085,12.27059 41.095085,12.27059 0.20426,-0.68395 0.0664,-1.42452 -0.37068,-1.98941 -3.53404,-4.56829 -11.706225,-14.22029 -19.238915,-16.46925 z"
               style="fill:#7fa24d;stroke-width:0.26458335"
               inkscape:connector-curvature="0" />
          </g>
          <path
             inkscape:connector-curvature="0"
             style="fill:#533f29;stroke-width:0.28702128"
             d="m 703.66464,111.15924 c 0.19571,-0.80206 0.74126,-1.47315 1.48639,-1.82936 0.74458,-0.35587 1.60998,-0.35851 2.35691,-0.008 5.50008,2.57871 16.62811,9.8081 19.09302,26.78888 l -6.00648,1.76245 c 0,0 -6.66042,-11.29766 -17.22767,-15.58221 -1.26393,-0.51246 -1.96376,-1.87443 -1.63982,-3.1991 z"
             id="path1245" />
          <path
             inkscape:connector-curvature="0"
             id="path1247"
             transform="matrix(0.26458334,0,0,0.26458334,0,17.599989)"
             d="m 2751.791,436.68945 c -3.6225,-0.0388 -7.2874,0.15077 -10.9805,0.58008 -35.8496,4.16743 -63.9834,29.77861 -73.0917,62.5293 16.17,24.63897 20.2287,56.6023 8.041,85.85547 -15.5725,37.37699 -17.4973,79.05559 -5.5196,117.73437 11.4831,37.07993 10.5376,78.24303 -5.5605,116.87891 -2.5255,6.06174 -5.3688,11.89267 -8.4824,17.50195 33.7525,36.53344 83.8897,57.00137 137.0781,50.81836 88.415,-10.27805 151.7566,-90.2842 141.4785,-178.69922 -4.5307,-38.97494 -22.6118,-73.07777 -48.9902,-98.14844 -27.5755,-26.20826 -45.0192,-61.03852 -49.4121,-98.82812 -5.0659,-43.57796 -41.8147,-75.76481 -84.5606,-76.22266 z"
             style="fill:#c5da61;fill-opacity:1;stroke-width:1.08480477" />
          <path
             inkscape:connector-curvature="0"
             id="path1251"
             transform="matrix(0.26458334,0,0,0.26458334,0,17.599989)"
             d="m 2751.791,436.68945 c -0.7128,-0.008 -1.4285,-0.004 -2.1445,0.008 -0.011,1.8e-4 -0.022,-1.6e-4 -0.033,0 -0.4985,0.008 -0.9981,0.0263 -1.4981,0.041 -0.1602,0.004 -0.3201,0.004 -0.4804,0.0117 0,8e-5 0,-1.1e-4 -0.01,0 -1.3798,0.0529 -2.7652,0.13914 -4.1543,0.25781 -0.011,8.3e-4 -0.02,10e-4 -0.031,0.002 l -0.1738,0.18554 c 0,0 29.7947,19.20013 40.9472,32.62305 10.8378,13.04406 18.4209,31.71651 23.877,44.92773 11.6845,28.29253 21.3232,68.29897 33.8027,101.8086 16.5735,44.5025 67.7533,82.15246 47.7364,139.50781 -25.1399,72.0342 -69.7176,93.92969 -125.2852,101.49219 -11.6451,1.58487 -45.9152,-5.45129 -71.6133,-15.33789 -8.3014,-3.19369 -20.4825,-8.37652 -32.0097,-13.16211 -1.431,2.96261 -2.9426,5.86212 -4.5215,8.70703 33.7511,36.5369 83.8819,57.01135 137.0722,50.82812 88.415,-10.27804 151.7586,-90.28416 141.4805,-178.69922 -0.8494,-7.30714 -2.1759,-14.44361 -3.9434,-21.38085 0,0 0,-0.002 0,-0.002 -1.1784,-4.62519 -2.5524,-9.16111 -4.1132,-13.60156 -0.7805,-2.22021 -1.6083,-4.41693 -2.4805,-6.58789 -0.8722,-2.171 -1.7886,-4.31584 -2.75,-6.43555 -0.9614,-2.11971 -1.9676,-4.21288 -3.0156,-6.27929 0,0 0,-0.002 0,-0.002 -0.524,-1.03321 -1.0584,-2.05859 -1.6035,-3.07812 -1.0904,-2.03898 -2.2234,-4.05054 -3.3965,-6.03321 -0.5863,-0.99087 -1.1826,-1.97476 -1.7891,-2.95117 0,0 0,-0.002 0,-0.002 -1.2133,-1.95326 -2.4676,-3.8776 -3.7598,-5.77149 -1.2924,-1.89433 -2.6233,-3.75891 -3.9921,-5.59179 -0.6842,-0.91608 -1.3794,-1.82429 -2.0821,-2.72461 0,0 0,-0.002 0,-0.002 -2.8118,-3.6025 -5.7724,-7.07732 -8.8691,-10.41797 0,0 0,-0.002 0,-0.002 -0.7739,-0.83486 -1.5567,-1.66062 -2.3477,-2.47851 0,0 0,-0.002 0,-0.002 -1.5825,-1.63646 -3.199,-3.23778 -4.8476,-4.80469 -0.8618,-0.81899 -1.7129,-1.64677 -2.5547,-2.48242 -0.8422,-0.83604 -1.674,-1.67893 -2.4961,-2.53125 -0.8218,-0.85199 -1.634,-1.71208 -2.4356,-2.58008 -2.4046,-2.60391 -4.7181,-5.27805 -6.9375,-8.01953 -4.4387,-5.48296 -8.5012,-11.23178 -12.1699,-17.20899 -1.2229,-1.99241 -2.4026,-4.01092 -3.5371,-6.05273 -1.1345,-2.04178 -2.2249,-4.1069 -3.2695,-6.19531 -1.0446,-2.08842 -2.0428,-4.19974 -2.9961,-6.33204 -0.4767,-1.06613 -0.9429,-2.13828 -1.3965,-3.21484 -0.9072,-2.1532 -1.7683,-4.32665 -2.582,-6.51953 -0.8138,-2.19288 -1.5799,-4.40496 -2.2989,-6.63477 -0.3594,-1.11492 -0.7075,-2.2338 -1.0429,-3.35742 -0.671,-2.24727 -1.2932,-4.51289 -1.8672,-6.79297 -0.574,-2.28004 -1.0986,-4.57468 -1.5742,-6.88476 -0.4757,-2.31009 -0.9016,-4.63529 -1.2774,-6.97266 -0.3757,-2.33733 -0.702,-4.687 -0.9765,-7.04883 -0.1482,-1.27381 -0.3277,-2.53524 -0.5293,-3.78906 -0.019,-0.12548 -0.038,-0.25185 -0.059,-0.37695 -0.1951,-1.18137 -0.4186,-2.35301 -0.6602,-3.51563 -0.04,-0.19275 -0.078,-0.38593 -0.1191,-0.57812 -0.2419,-1.12566 -0.5084,-2.2406 -0.793,-3.34766 -0.056,-0.21657 -0.1089,-0.43266 -0.166,-0.64844 -0.2922,-1.10146 -0.604,-2.19342 -0.9375,-3.27539 -0.057,-0.18406 -0.1156,-0.36698 -0.1738,-0.55078 -0.3478,-1.10173 -0.7159,-2.19494 -1.1055,-3.27539 -0.054,-0.14891 -0.1096,-0.2967 -0.1641,-0.44531 -0.4108,-1.11972 -0.8382,-2.23045 -1.2929,-3.32617 -0.026,-0.0616 -0.054,-0.12199 -0.08,-0.1836 -0.4539,-1.08646 -0.9318,-2.15888 -1.4277,-3.2207 -0.047,-0.10129 -0.091,-0.20377 -0.1387,-0.30469 -0.4855,-1.02894 -0.9936,-2.04404 -1.5176,-3.04883 -0.095,-0.18141 -0.1872,-0.36433 -0.2832,-0.54492 -0.5163,-0.973 -1.0539,-1.93167 -1.6055,-2.88086 -0.1047,-0.1799 -0.2086,-0.36017 -0.3144,-0.53906 -0.5644,-0.95512 -1.1469,-1.89825 -1.7461,-2.82812 -0.1024,-0.15875 -0.2054,-0.31674 -0.3086,-0.47461 -0.6047,-0.92478 -1.225,-1.83767 -1.8633,-2.73633 -0.1134,-0.1595 -0.2276,-0.31786 -0.3418,-0.47656 -0.6604,-0.9165 -1.3348,-1.82095 -2.0293,-2.70899 -0.061,-0.0775 -0.1227,-0.15337 -0.1836,-0.23047 -0.7199,-0.91396 -1.456,-1.81463 -2.2109,-2.69726 -0.039,-0.0457 -0.078,-0.091 -0.1172,-0.13672 0,-0.004 -0.01,-0.0118 -0.012,-0.0156 -0.063,-0.0737 -0.1315,-0.14309 -0.1953,-0.21679 -0.7965,-0.92051 -1.61,-1.82413 -2.4434,-2.70899 -0.3326,-0.35301 -0.6793,-0.69176 -1.0176,-1.03906 -0.5989,-0.61478 -1.1979,-1.22988 -1.8144,-1.82617 -0.3572,-0.34545 -0.7251,-0.67852 -1.0879,-1.01758 -0.6089,-0.56901 -1.2189,-1.13648 -1.8438,-1.6875 -0.4029,-0.35528 -0.8151,-0.69908 -1.2246,-1.04688 -0.5993,-0.50902 -1.2016,-1.0153 -1.8144,-1.50781 -0.4479,-0.35981 -0.9025,-0.71161 -1.3575,-1.0625 -0.5913,-0.45615 -1.186,-0.90689 -1.789,-1.34765 -0.4834,-0.35339 -0.9722,-0.69968 -1.4629,-1.04297 -0.6103,-0.42698 -1.2263,-0.84657 -1.8477,-1.25782 -0.4726,-0.31294 -0.947,-0.62221 -1.4257,-0.92578 -0.6452,-0.40902 -1.297,-0.8072 -1.9532,-1.19922 -0.5067,-0.30274 -1.0142,-0.60402 -1.5273,-0.89648 -0.6539,-0.37266 -1.3165,-0.73209 -1.9805,-1.08789 -0.5857,-0.3137 -1.1685,-0.63312 -1.7617,-0.9336 -0.1882,-0.0952 -0.3757,-0.19142 -0.5645,-0.28515 -0.9675,-0.48117 -1.9449,-0.94348 -2.9316,-1.38867 -0.1999,-0.0903 -0.4007,-0.17876 -0.6016,-0.26758 -1.0008,-0.44247 -2.0101,-0.86873 -3.0293,-1.27344 -0.1568,-0.0624 -0.3152,-0.12199 -0.4726,-0.18359 -1.0694,-0.41738 -2.1462,-0.81828 -3.2344,-1.19336 -0.092,-0.0302 -0.1851,-0.0604 -0.2773,-0.0918 -1.1198,-0.38173 -2.2485,-0.74205 -3.3867,-1.07812 -0.03,-0.008 -0.061,-0.0199 -0.092,-0.0312 -0.011,-0.003 -0.024,-0.002 -0.031,-0.006 -1.1142,-0.32731 -2.2384,-0.62768 -3.3691,-0.91016 -0.1784,-0.0446 -0.3564,-0.0933 -0.5352,-0.13672 -1.0639,-0.25852 -2.1355,-0.49271 -3.2129,-0.71094 -0.2343,-0.0476 -0.4682,-0.0949 -0.7031,-0.14062 -1.0765,-0.20863 -2.1593,-0.39668 -3.2481,-0.56445 -0.2078,-0.0302 -0.4164,-0.0631 -0.625,-0.0937 -1.1111,-0.1629 -2.2289,-0.30654 -3.3515,-0.42578 -0.1924,-0.0189 -0.3855,-0.0377 -0.5781,-0.0566 -1.1414,-0.11376 -2.2875,-0.20931 -3.4395,-0.27734 -0.1644,-0.0113 -0.3296,-0.014 -0.4941,-0.0254 -1.2135,-0.0646 -2.4304,-0.10982 -3.6543,-0.12305 z"
             style="opacity:1;vector-effect:none;fill:#95b94d;fill-opacity:1;stroke:none;stroke-width:0.2;stroke-linecap:butt;stroke-linejoin:miter;stroke-miterlimit:4;stroke-dasharray:none;stroke-dashoffset:0;stroke-opacity:1" />
          <g
             id="g1277"
             transform="matrix(1.4376574,0.38521915,-0.38521915,1.4376574,724.51311,-121.62603)"
             style="fill:#7f9f3e;fill-opacity:1">
            <g
               transform="translate(0.66962814)"
               id="g1273"
               style="fill:#7f9f3e;fill-opacity:1">
              <circle
                 style="opacity:1;vector-effect:none;fill:#7f9f3e;fill-opacity:1;stroke:none;stroke-width:0.26458335;stroke-linecap:butt;stroke-linejoin:miter;stroke-miterlimit:4;stroke-dasharray:none;stroke-dashoffset:0;stroke-opacity:1;paint-order:stroke fill markers"
                 id="circle1269"
                 cx="72.096863"
                 cy="220.29013"
                 r="1.1904538" />
              <circle
                 r="1.1904538"
                 cy="220.29013"
                 cx="76.858681"
                 id="circle1271"
                 style="opacity:1;vector-effect:none;fill:#7f9f3e;fill-opacity:1;stroke:none;stroke-width:0.26458335;stroke-linecap:butt;stroke-linejoin:miter;stroke-miterlimit:4;stroke-dasharray:none;stroke-dashoffset:0;stroke-opacity:1;paint-order:stroke fill markers" />
            </g>
            <circle
               r="1.1904538"
               cy="224.30791"
               cx="75.1474"
               id="circle1275"
               style="opacity:1;vector-effect:none;fill:#7f9f3e;fill-opacity:1;stroke:none;stroke-width:0.26458335;stroke-linecap:butt;stroke-linejoin:miter;stroke-miterlimit:4;stroke-dasharray:none;stroke-dashoffset:0;stroke-opacity:1;paint-order:stroke fill markers" />
          </g>
        </g>
      </g>
    </g>
  </g>
</svg>
